HIERARCHY
ROOT Hips
{
  OFFSET 1.44925e-005 102.336 -0.101585
  CHANNELS 6 Xposition Yposition Zposition Zrotation Xrotation Yrotation
  JOINT LeftUpLeg
  {
    OFFSET 8.9458 -8.66707 0.101652
    CHANNELS 3 Zrotation Xrotation Yrotation
    JOINT LeftLeg
    {
      OFFSET 0 -44.4227 1.3727
      CHANNELS 3 Zrotation Xrotation Yrotation
      JOINT LeftFoot
      {
        OFFSET -0.253549 -42.0924 -1.46059
        CHANNELS 3 Zrotation Xrotation Yrotation
        JOINT LeftToes
        {
          OFFSET -0.04 -4.41509 8.4991
          CHANNELS 3 Zrotation Xrotation Yrotation
          End Site
          {
            OFFSET 0.08 -0.047448 9.77979
          }
        }
      }
    }
  }
  JOINT Spine
  {
    OFFSET 0 11.8905 0
    CHANNELS 3 Zrotation Xrotation Yrotation
    JOINT Spine1
    {
      OFFSET 0 25.6574 0.127663
      CHANNELS 3 Zrotation Xrotation Yrotation
      JOINT RightShoulder
      {
        OFFSET -8.99 -0.362252 -0.22
        CHANNELS 3 Zrotation Xrotation Yrotation
        JOINT RightArm
        {
          OFFSET -10.2827 -0.00338 0.322123
          CHANNELS 3 Zrotation Xrotation Yrotation
          JOINT RightForeArm
          {
            OFFSET -26.364 0.099144 -1.42434
            CHANNELS 3 Zrotation Xrotation Yrotation
            JOINT RightHand
            {
              OFFSET -22.0324 0.085362 1.02216
              CHANNELS 3 Zrotation Xrotation Yrotation
              End Site
              {
                OFFSET -13.3284 -0.6 1.50291
              }
            }
          }
        }
      }
      JOINT LeftShoulder1
      {
        OFFSET 8.99 -0.362252 -0.22
        CHANNELS 3 Zrotation Xrotation Yrotation
        JOINT LeftArm
        {
          OFFSET 10.2827 -0.00337999 0.322123
          CHANNELS 3 Zrotation Xrotation Yrotation
          JOINT LeftForeArm
          {
            OFFSET 26.2597 0.099144 -1.42434
            CHANNELS 3 Zrotation Xrotation Yrotation
            JOINT LeftHand
            {
              OFFSET 22.0902 0.085362 1.02216
              CHANNELS 3 Zrotation Xrotation Yrotation
              End Site
              {
                OFFSET 13.419 -0.6 1.50291
              }
            }
          }
        }
      }
      JOINT Head
      {
        OFFSET 0 8.73416 0.011341
        CHANNELS 3 Zrotation Xrotation Yrotation
        End Site
        {
          OFFSET -0.29 12.7742 2.51395
        }
      }
    }
  }
  JOINT RightUpLeg
  {
    OFFSET -8.9458 -8.66707 0.101652
    CHANNELS 3 Zrotation Xrotation Yrotation
    JOINT RightLeg
    {
      OFFSET 0 -44.4227 1.3727
      CHANNELS 3 Zrotation Xrotation Yrotation
      JOINT RightFoot
      {
        OFFSET 0.253549 -42.0924 -1.46059
        CHANNELS 3 Zrotation Xrotation Yrotation
        JOINT RightToes
        {
          OFFSET 0.04 -4.41509 8.4991
          CHANNELS 3 Zrotation Xrotation Yrotation
          End Site
          {
            OFFSET -0.08 -0.137448 9.77979
          }
        }
      }
    }
  }
}
MOTION
Frames:	21
Frame Time:	0.0333333
195.769 103.034 3.9193 -4.11276 -0.490683 -91.352 -0.982472 2.24876 1.85312 0.344178 9.18191 17.1549 -3.20288 -11.1914 -0.0527115 -1.27582e-009 8.75257e-006 -1.48264e-008 0.454587 8.74931 -0.0634835 -0.0708578 -3.13564 0.0566493 35.4943 1.68861 0.0328853 43.6756 -21.4745 7.52804 8.20398 41.0902 6.8498 -8.63112 9.56452 -0.629783 -43.2081 3.49824 -3.52644 -29.3208 -14.6169 2.25192 -4.0903 36.1186 -14.7956 5.82328 9.61819 -0.917488 -0.490904 -3.17138 -5.23537 -0.556325 3.08776 -4.05542 -0.258609 10.5634 -8.23216 3.15257 -13.5812 -0.0466555 0.0462048 0.000530889 0.662642 
195.769 103.034 3.92908 -4.11761 -0.486266 -91.3735 -0.989096 2.25689 1.85313 0.345111 9.17961 17.2059 -3.21848 -11.2224 -0.0527172 -1.27582e-009 8.75257e-006 -1.48264e-008 0.513819 8.78625 -0.0433395 -0.170264 -3.23015 0.0949935 35.5991 1.68861 0.0328853 43.5536 -21.4582 7.43238 8.18582 41.0038 6.89961 -8.69147 9.56458 -0.594907 -43.1294 3.48446 -3.51084 -29.3828 -14.585 2.27357 -4.07482 36.2079 -14.7966 5.82328 9.61819 -0.917488 -0.404491 -3.24164 -5.27558 -0.55699 3.08975 -4.05542 -0.259508 10.5634 -8.23216 3.12605 -13.5812 -0.0466555 0.0462048 0.000530889 0.662642 
195.769 103.034 3.9424 -4.12004 -0.488126 -91.387 -1.00142 2.25686 1.85044 0.34379 9.19231 17.2379 -3.23497 -11.2486 -0.0527219 -1.27582e-009 8.75257e-006 -1.48264e-008 0.5927 8.8393 -0.0288833 -0.331608 -3.36995 0.137599 35.7757 1.68861 0.0328853 43.3462 -21.3345 7.28013 8.14128 40.8164 7.0296 -8.73681 9.56646 -0.60969 -43.0103 3.46391 -3.48777 -29.4689 -14.6058 2.30127 -4.06483 36.3734 -14.7711 5.82328 9.61819 -0.917488 -0.289575 -3.39966 -5.42484 -0.562175 3.09074 -4.05543 -0.265174 10.5634 -8.2327 3.07032 -13.5812 -0.0466555 0.0462048 0.000530889 0.662642 
195.771 103.034 3.95518 -4.09617 -0.50094 -91.3841 -1.019 2.22341 1.83731 0.338981 9.21064 17.2261 -3.23271 -11.2409 -0.0527205 -1.27582e-009 8.75257e-006 -1.48264e-008 0.611264 8.84361 -0.0342605 -0.405118 -3.4275 0.14342 35.829 1.68861 0.0328853 43.3199 -21.3278 7.26784 8.12493 40.9262 7.0332 -8.62379 9.57511 -0.682027 -42.9865 3.45797 -3.47944 -29.4871 -14.7146 2.31644 -4.06467 36.4894 -14.7371 5.82328 9.61819 -0.917488 -0.108332 -3.45121 -5.15507 -0.576883 3.0625 -4.05532 -0.275911 10.5634 -8.23064 3.0313 -13.5812 -0.0466555 0.0462048 0.000530889 0.662642 
195.779 103.033 3.96999 -4.058 -0.510696 -91.384 -1.03407 2.17122 1.82235 0.33264 9.22046 17.2194 -3.20314 -11.2211 -0.0527169 -1.27582e-009 8.75257e-006 -1.48264e-008 0.582991 8.81642 -0.0421686 -0.354194 -3.39736 0.125247 35.6831 1.68861 0.0328853 43.5685 -21.5703 7.43157 8.1763 41.4191 6.8114 -8.45349 9.58406 -0.713045 -43.0988 3.47285 -3.49221 -29.4173 -14.7872 2.3281 -4.04788 36.4845 -14.7498 5.82328 9.61819 -0.917488 0.174007 -3.17267 -4.14301 -0.594222 3.01427 -4.05556 -0.280013 10.5637 -8.21947 3.04947 -13.584 -0.0466561 0.0462048 0.000530889 0.662642 
195.79 103.029 3.98625 -4.04233 -0.503296 -91.3842 -1.03382 2.1404 1.82654 0.324553 9.22559 17.2345 -3.15509 -11.2215 -0.052717 -1.27582e-009 8.75257e-006 -1.48264e-008 0.57718 8.80106 -0.0428241 -0.279633 -3.33211 0.112091 35.4797 1.68833 0.0328853 43.8799 -21.8451 7.6188 8.26227 41.873 6.53854 -8.49276 9.58109 -0.691936 -43.24 3.49339 -3.51184 -29.3295 -14.7587 2.31957 -4.01387 36.4112 -14.8053 5.82328 9.61819 -0.917488 0.395217 -2.6363 -3.01256 -0.598868 2.9895 -4.05965 -0.271592 10.5654 -8.22589 3.09765 -13.5959 -0.0466584 0.0462048 0.000530889 0.662642 
195.797 103.023 4.00038 -4.05312 -0.488714 -91.3662 -1.02655 2.14131 1.83593 0.320325 9.23053 17.2427 -3.11543 -11.2416 -0.0527207 -1.27582e-009 8.75257e-006 -1.48264e-008 0.604603 8.75993 -0.0536494 -0.274552 -3.21224 0.102194 35.4276 1.68665 0.0314358 43.991 -21.9356 7.73762 8.32735 42.0015 6.39648 -8.76718 9.57307 -0.738074 -43.2667 3.49962 -3.52023 -29.3129 -14.7524 2.25039 -3.99717 36.3324 -14.8408 5.82328 9.61819 -0.917488 0.512823 -2.29219 -2.33413 -0.599118 2.9911 -4.07626 -0.252929 10.5808 -8.24743 3.11246 -13.6075 -0.0466607 0.0462048 0.000530889 0.662642 
195.801 103.022 4.01188 -4.05958 -0.489968 -91.3385 -1.03962 2.14433 1.81738 0.330045 9.23384 17.2386 -3.1128 -11.2585 -0.0527238 -1.27582e-009 8.75257e-006 -1.48264e-008 0.619122 8.66361 -0.0865173 -0.338917 -3.04024 0.0815004 35.5863 1.68822 0.0256304 43.8691 -21.8808 7.82774 8.37416 41.9198 6.35631 -9.01127 9.57411 -0.895894 -43.1429 3.48712 -3.51413 -29.3882 -14.8576 2.14894 -3.99794 36.2377 -14.8486 5.82328 9.61819 -0.917488 0.62792 -2.05508 -1.86079 -0.619715 2.98013 -4.10912 -0.23138 10.6236 -8.24306 3.08718 -13.6141 -0.046662 0.0462048 0.000530889 0.662642 
195.807 103.021 4.02265 -4.0513 -0.5084 -91.325 -1.07444 2.12938 1.77861 0.347837 9.24286 17.2389 -3.14551 -11.2664 -0.0527252 -1.27582e-009 8.75257e-006 -1.48264e-008 0.623974 8.63385 -0.120591 -0.445077 -2.98958 0.0649982 35.825 1.6947 0.0202562 43.6676 -21.7817 7.85984 8.42806 41.739 6.34292 -9.06888 9.58001 -1.01278 -42.9601 3.46706 -3.50182 -29.4869 -14.9395 2.12349 -3.96431 36.1273 -14.8984 5.82328 9.61819 -0.917488 0.75314 -1.86046 -1.47519 -0.656493 2.95378 -4.14132 -0.219277 10.6573 -8.2089 3.073 -13.6268 -0.0466645 0.0462048 0.000530889 0.662642 
195.812 103.019 4.03199 -4.0462 -0.518974 -91.3151 -1.09308 2.10709 1.76523 0.351619 9.26563 17.2407 -3.16986 -11.2775 -0.0527273 -1.27582e-009 8.75257e-006 -1.48264e-008 0.671889 8.79134 -0.133204 -0.575572 -3.20187 0.0736657 35.9816 1.69908 0.0152809 43.5154 -21.6276 7.73114 8.46537 41.4313 6.39761 -9.04763 9.57528 -0.932813 -42.8355 3.45139 -3.4893 -29.5245 -14.8655 2.20697 -3.89242 36.0665 -14.9951 5.82328 9.61819 -0.917488 0.773805 -2.12433 -1.7065 -0.675479 2.9468 -4.1516 -0.216695 10.6533 -8.19734 3.09003 -13.6423 -0.0466676 0.0462048 0.000530889 0.662642 
195.814 103.016 4.03853 -4.04483 -0.507334 -91.2817 -1.07448 2.08656 1.78736 0.337538 9.29015 17.2031 -3.14511 -11.2935 -0.0527302 -1.27582e-009 8.75257e-006 -1.48264e-008 0.757315 9.01755 -0.133192 -0.691268 -3.51297 0.0939113 36.0427 1.70284 0.0068784 43.4125 -21.4315 7.49757 8.4513 41.1099 6.53654 -9.0605 9.56111 -0.737124 -42.7964 3.44207 -3.47643 -29.4982 -14.7383 2.28663 -3.87007 36.0806 -15.028 5.82328 9.61819 -0.917488 0.71527 -2.92473 -2.43902 -0.667777 2.95297 -4.14862 -0.207217 10.6437 -8.22677 3.10637 -13.6464 -0.0466172 0.0462048 0.000530889 0.662642 
195.817 103.014 4.04406 -4.02759 -0.492176 -91.2426 -1.0498 2.05913 1.80521 0.32264 9.30043 17.1473 -3.09206 -11.3016 -0.0527317 -1.27582e-009 8.75257e-006 -1.48264e-008 0.816789 9.10782 -0.140735 -0.771398 -3.66667 0.101365 36.1407 1.70616 -0.00138816 43.2772 -21.3079 7.34992 8.42463 40.9602 6.63576 -9.11822 9.55284 -0.654064 -42.7557 3.43157 -3.46139 -29.4929 -14.7028 2.27851 -3.95131 36.1084 -14.9355 5.82328 9.61819 -0.917488 0.744602 -3.20353 -2.60759 -0.664417 2.92883 -4.15646 -0.185029 10.6683 -8.24748 3.10819 -13.6437 -0.0466498 0.0462048 0.000530889 0.662642 
195.818 103.013 4.04986 -3.9974 -0.495751 -91.2417 -1.05027 2.02347 1.80252 0.312318 9.30789 17.1317 -3.07264 -11.2985 -0.0527311 -1.27582e-009 8.75257e-006 -1.48264e-008 0.84211 9.1012 -0.156324 -0.871239 -3.70675 0.10211 36.3478 1.70853 -0.00336779 43.0773 -21.2787 7.32356 8.45673 40.8788 6.61394 -9.24188 9.55216 -0.749879 -42.6197 3.41343 -3.44541 -29.5782 -14.7088 2.26006 -4.05825 36.0974 -14.8171 5.82328 9.61819 -0.917488 0.919845 -2.92875 -2.1517 -0.681534 2.87858 -4.17047 -0.171398 10.7032 -8.23292 3.11498 -13.6493 -0.0470053 0.0462048 0.000530889 0.662642 
195.817 103.012 4.05346 -3.97813 -0.509514 -91.2699 -1.05624 1.99518 1.81096 0.292317 9.33188 17.1482 -3.10555 -11.2998 -0.0527314 -1.27582e-009 8.75257e-006 -1.48264e-008 0.878912 9.1727 -0.167333 -1.01753 -3.81789 0.113141 36.5329 1.70949 -0.00461024 42.9197 -21.2209 7.28457 8.51927 40.6607 6.58437 -9.40604 9.55483 -0.865343 -42.4335 3.39387 -3.43404 -29.7065 -14.6782 2.3082 -4.09153 36.0864 -14.7827 5.82328 9.61819 -0.917488 0.963828 -3.25837 -2.48454 -0.691648 2.8519 -4.16356 -0.183774 10.7033 -8.23042 3.11357 -13.6564 -0.0476037 0.0462048 0.000530889 0.662642 
195.811 103.012 4.05569 -3.97604 -0.509908 -91.2768 -1.03881 1.98607 1.84222 0.266031 9.3624 17.1302 -3.14522 -11.3176 -0.0527346 -1.27582e-009 8.75257e-006 -1.48264e-008 0.906845 9.27639 -0.164187 -1.09293 -3.90476 0.127187 36.5325 1.70545 -0.0148519 42.9232 -21.1061 7.21429 8.51254 40.4213 6.66753 -9.48974 9.55922 -0.899276 -42.3587 3.38798 -3.43341 -29.76 -14.7016 2.33076 -4.07092 36.1549 -14.789 5.82328 9.61819 -0.917488 0.711112 -4.55713 -4.02203 -0.671178 2.86235 -4.13178 -0.2091 10.6808 -8.2768 3.09502 -13.651 -0.0483635 0.0462048 0.000530889 0.662642 
195.798 103.011 4.05745 -3.9791 -0.497891 -91.2574 -1.01545 1.99358 1.86331 0.2578 9.37519 17.0768 -3.15229 -11.3402 -0.0527388 -1.27582e-009 8.75257e-006 -1.48264e-008 0.861008 9.23199 -0.145564 -1.00176 -3.75555 0.131298 36.4205 1.6959 -0.0278131 43.0081 -21.0613 7.23974 8.45372 40.3651 6.76318 -9.5054 9.56319 -0.957219 -42.4473 3.39886 -3.4424 -29.7138 -14.8258 2.23192 -4.07162 36.3019 -14.7497 5.82328 9.61819 -0.917488 0.387178 -5.53112 -5.31948 -0.639286 2.87783 -4.09684 -0.230023 10.6778 -8.3342 3.07396 -13.6516 -0.0492098 0.0462048 0.000530889 0.662642 
195.783 103.011 4.05874 -3.9785 -0.494624 -91.2579 -1.01691 2.00566 1.86214 0.265229 9.36643 17.0696 -3.1326 -11.347 -0.05274 -1.27582e-009 8.75257e-006 -1.48264e-008 0.78067 9.0865 -0.126656 -0.880668 -3.49668 0.131583 36.4178 1.69861 -0.0212268 42.9808 -21.1247 7.3655 8.4766 40.4007 6.6984 -9.60135 9.56459 -1.08816 -42.5384 3.40908 -3.44897 -29.6838 -14.8894 2.11605 -4.08769 36.4331 -14.7028 5.82328 9.61819 -0.917488 0.297446 -5.80247 -5.5824 -0.6238 2.87338 -4.06792 -0.253586 10.7038 -8.35655 3.08231 -13.6686 -0.0500661 0.0462048 0.000530889 0.662642 
195.767 103.01 4.05958 -3.96482 -0.503184 -91.2908 -1.03259 2.00613 1.86472 0.260323 9.34575 17.1361 -3.10288 -11.3404 -0.0527388 -1.27582e-009 8.75257e-006 -1.48264e-008 0.77189 9.02268 -0.128784 -0.904919 -3.40308 0.130674 36.5169 1.716 0.0111928 42.8662 -21.1666 7.44407 8.57527 40.4343 6.54206 -9.64342 9.56291 -1.11203 -42.5044 3.40638 -3.4487 -29.7443 -14.8221 2.11777 -4.07105 36.4795 -14.7195 5.82328 9.61819 -0.917488 0.224793 -6.04077 -5.80096 -0.618919 2.84074 -4.03538 -0.289453 10.7474 -8.36043 3.106 -13.6989 -0.0508533 0.0462048 0.000530889 0.662642 
195.75 103.009 4.05999 -3.93226 -0.506081 -91.3237 -1.03746 1.99142 1.86469 0.247032 9.32054 17.2032 -3.0796 -11.3451 -0.0527397 -1.27582e-009 8.75257e-006 -1.48264e-008 0.807836 9.01187 -0.13841 -0.962865 -3.40279 0.13092 36.4473 1.72767 0.0445278 42.9137 -21.1165 7.42383 8.54281 40.6621 6.56056 -9.2782 9.5664 -0.929447 -42.4953 3.40685 -3.45106 -29.7752 -14.8123 2.15866 -4.04788 36.4633 -14.7495 5.82328 9.61819 -0.917488 0.0862199 -6.39015 -6.36497 -0.60704 2.78527 -3.99997 -0.324547 10.8002 -8.37492 3.12077 -13.7285 -0.0514897 0.0462048 0.000530889 0.662642 
195.727 103.006 4.05997 -3.90433 -0.501599 -91.3483 -1.04065 1.98727 1.85802 0.252784 9.30391 17.2252 -3.0923 -11.3657 -0.0527435 -1.27582e-009 8.75257e-006 -1.48264e-008 0.755755 8.92184 -0.11068 -0.83321 -3.25714 0.137149 36.1173 1.71948 0.0536444 43.1847 -21.065 7.40407 8.30702 41.0953 6.81265 -8.65373 9.57956 -0.769285 -42.7149 3.43031 -3.46508 -29.6248 -14.9213 2.1041 -4.07235 36.3848 -14.7273 5.82328 9.61819 -0.917488 0.23922 -6.23403 -6.24702 -0.598995 2.75401 -3.9815 -0.340758 10.8252 -8.37334 3.14395 -13.7523 -0.0518954 0.0462048 0.000530889 0.662642 
195.697 103.005 4.05958 -3.90912 -0.508049 -91.3841 -1.05636 2.01609 1.85211 0.26255 9.30598 17.2428 -3.13718 -11.3778 -0.0527458 -1.27582e-009 8.75257e-006 -1.48264e-008 0.628235 8.82874 -0.046655 -0.612809 -3.06141 0.161172 35.8298 1.70322 0.0399634 43.4129 -21.1166 7.45787 8.13521 41.3442 6.97651 -8.44139 9.59168 -0.823269 -43.0332 3.46207 -3.48044 -29.3806 -14.8959 2.0285 -4.11298 36.1913 -14.7248 5.82328 9.61819 -0.917488 0.679437 -5.50104 -5.42055 -0.615821 2.79447 -3.99271 -0.338173 10.7818 -8.32395 3.18386 -13.7626 -0.0519898 0.0462048 0.000530889 0.662642 
